<?xml version="1.0" encoding="UTF-8"?>
<svg id="Calque_1" data-name="Calque 1" xmlns="http://www.w3.org/2000/svg" viewBox="0 0 16 16">
  <defs>
    <style>
      .cls-1 {
        fill: #171719;
      }

      .cls-2 {
        fill: #e6332a;
      }

      .cls-3 {
        fill: #be1622;
      }

      .cls-4 {
        fill: #f9b233;
      }

      .cls-5 {
        fill: #f9d7d7;
      }

      .cls-6 {
        fill: #fcea10;
      }

      .cls-7 {
        fill: #1d1d1b;
      }
    </style>
  </defs>
  <rect class="cls-6" x="12.41" y="6.24" width="1.46" height=".23"/>
  <rect class="cls-6" x="12.41" y="6.51" width="1.46" height=".23"/>
  <rect class="cls-2" x="12.44" y="5.96" width=".95" height=".23" transform="translate(-1.31 7.27) rotate(-30)"/>
  <rect class="cls-2" x="12.44" y="6.73" width=".95" height=".23" transform="translate(5.15 -5.54) rotate(30)"/>
  <rect class="cls-4" x="12.55" y="6.35" width="1.46" height=".23"/>
  <rect class="cls-3" x="12.38" y="5.85" width=".95" height=".23" transform="translate(-1.26 7.23) rotate(-30)"/>
  <rect class="cls-3" x="12.42" y="6.87" width=".95" height=".23" transform="translate(5.22 -5.51) rotate(30)"/>
  <rect class="cls-2" x="3.17" y="7.98" width="1" height="1"/>
  <rect class="cls-2" x="2.17" y="8.98" width="1" height="1"/>
  <rect class="cls-2" x="1.17" y="9.98" width="1" height="1"/>
  <rect class="cls-2" x=".17" y="8.98" width="1" height="1"/>
  <rect class="cls-2" x="2.17" y="6.98" width="1" height="1"/>
  <rect class="cls-2" x="1.17" y="5.98" width="1" height="1"/>
  <rect class="cls-1" x="3.17" y="8.98" width="1" height="1"/>
  <rect class="cls-1" x="3.17" y="6.98" width="1" height="1"/>
  <rect class="cls-1" x="4.17" y="5.98" width="3" height="5"/>
  <rect class="cls-1" x="7.17" y="6.98" width="1" height="3"/>
  <rect class="cls-5" x="5.22" y="4.98" width="4.17" height="1"/>
  <rect class="cls-7" x="8.6" y="5.98" width="4" height="1"/>
</svg>