<?xml version="1.0" encoding="UTF-8"?>
<svg id="Calque_1" data-name="Calque 1" xmlns="http://www.w3.org/2000/svg" viewBox="0 0 1000 1000">
  <defs>
    <style>
      .cls-1 {
        fill: #040404;
      }

      .cls-2 {
        fill: #fdfdfd;
      }

      .cls-3 {
        fill: #fac20a;
      }
    </style>
  </defs>
  <g>
    <path class="cls-2" d="M260.38,634.67c.18,0,.36,0,.53,0,0,22.2,.43,44.41-.1,66.6-.8,33.59-1.1,67.02,12.57,98.72,.34,.8,.64,1.64,.81,2.49,.32,1.51,.04,2.85-1.25,3.9-15.31,12.53-13.96,29.85-12.98,46.78,1.22,21.01,15.93,35.37,36.87,35.59,35.63,.37,71.27,.24,106.91,0,12.39-.08,22.6-5.38,29.89-15.57,10.68-14.93,10.15-46.96-1.36-61.41-3.11-3.9-3.49-6.99-2.4-11.75,3.56-15.58,10.63-30.6,10.75-46.67,.47-60.46,.12-120.93,.09-181.39-.01-20.15,3.53-41.13-.96-60.23-4.54-19.32-16.99-36.78-26.01-55.04-1.42-2.88-2.93-5.64-2.92-9.02,.09-25.41-.74-50.86,.34-76.23,1.42-33.41-1.68-66.42-6.44-99.33-7.2-49.79-22.77-97.5-37.39-145.41-2.97-9.74-9.33-15.73-16.58-15.68-7.3,.05-13.75,6.15-16.46,15.8-4.57,16.26-8.84,32.61-13.61,48.81-17.22,58.44-28.94,117.75-29.2,178.95-.12,28.89-.52,57.78-.51,86.67,0,6.62-1.36,12.53-4.39,18.4-7.9,15.26-15.39,30.73-23.17,46.05-1.74,3.42-3.1,6.72-3.09,10.69,.09,39.42,.06,78.85,.06,118.27Z"/>
    <path class="cls-1" d="M260.38,634.67c0-39.42,.04-78.85-.06-118.27,0-3.98,1.35-7.28,3.09-10.69,7.78-15.32,15.28-30.79,23.17-46.05,3.04-5.87,4.4-11.78,4.39-18.4-.01-28.89,.38-57.78,.51-86.67,.26-61.2,11.98-120.51,29.2-178.95,4.77-16.2,9.04-32.55,13.61-48.81,2.71-9.65,9.16-15.75,16.46-15.8,7.25-.05,13.61,5.94,16.58,15.68,14.62,47.92,30.19,95.62,37.39,145.41,4.76,32.91,7.86,65.92,6.44,99.33-1.08,25.37-.25,50.81-.34,76.23-.01,3.39,1.5,6.15,2.92,9.02,9.02,18.26,21.47,35.72,26.01,55.04,4.49,19.1,.95,40.07,.96,60.23,.03,60.46,.38,120.93-.09,181.39-.13,16.07-7.2,31.09-10.75,46.67-1.09,4.76-.71,7.85,2.4,11.75,11.51,14.45,12.04,46.47,1.36,61.41-7.28,10.19-17.49,15.49-29.89,15.57-35.63,.23-71.28,.36-106.91,0-20.94-.22-35.65-14.58-36.87-35.59-.98-16.93-2.33-34.25,12.98-46.78,1.29-1.05,1.57-2.39,1.25-3.9-.18-.85-.47-1.69-.81-2.49-13.67-31.71-13.36-65.13-12.57-98.72,.53-22.19,.1-44.4,.1-66.6-.18,0-.36,0-.53,0Zm105.14-253.89c-9.88,0-19.76,.02-29.64,.02-1.73-.1-3.48-.04-5.18-.32-7.57-1.23-10.53,1.24-9.95,9.49,.81,11.51,.2,23.12,.2,34.69q0,14.41,14.92,13.49c9.89,0,19.77,.02,29.66,.03,2.03,.11,4.09,0,6.07,.36,7.82,1.41,9.96-1.82,9.49-9.47-.69-11.29-.18-22.66-.18-33.99q0-15.09-15.4-14.32Zm12.32,89.57c-18.04,0-36.09,.02-54.13,.02-3.77,.07-8.07-2.24-10.55,2.98-4.06,8.56-8.35,17-12.83,26.06h15.35c23.6,0,47.21,.01,70.81,.02h14.85c-3.95-7.91-8-14.85-10.91-22.23-2.49-6.32-6.29-8.42-12.59-6.85Zm-68.72,299.57h-13.39c1.69,6.42,3.93,12.36,4.69,18.48,1,8.1,4.77,10.93,12.49,8.94,25.13,.01,50.26,.02,75.39,.03,9.09,2.15,14.15-1.17,14.74-10.75,.09-1.41,.73-2.79,1.09-4.19q3.48-13.36-10.69-12.51c-28.11,0-56.22,0-84.33,0Zm87.85-31.69q13.84,1.66,13.84-11.3c0-60.77,0-121.53,0-182.3q0-15.46-15.57-14.26c-29.78-.59-59.56-.74-89.34,.08q-14.97-1.25-14.97,12.93c0,60.7,0,121.4,0,182.11q0,14.11,14.98,12.76c29.79,.77,59.59,.85,89.38-.04,.56,.01,1.12,.02,1.69,.03Zm-38.09-529.7c-1.61-9.46-4.15-18.63-8.33-28.96-2.8,10.16-5.14,18.66-7.48,27.15-11.35,42.31-19.07,85.22-21.28,129.03-.78,15.39-.64,15.4,14.93,13.98,9.57,.88,19.14,.72,28.71,.08,1.44,.15,2.88,.41,4.33,.44,11.05,.24,10.72,.23,10.3-10.39-.66-16.61-1.86-33.15-4.07-49.63-3.72-27.65-7.74-55.24-17.1-81.71Zm-7.94,652.02c14.01,0,28.02,0,42.03,0,19.54,0,19.67-.35,19.36-20.24-.13-8.12-3.15-11.34-11.56-11.23-30.06,.38-60.12,.18-90.19,.18-20.46,0-20.32,.03-19.78,20.34,.2,7.7,3.27,11.13,11.1,11.02,16.34-.24,32.69-.07,49.03-.07Z"/>
    <path class="cls-3" d="M395.29,738.2c-29.79,.89-59.59,.81-89.38,.04,0-69.27,0-138.53,0-207.8,29.78-.82,59.56-.67,89.34-.08-.13,.4-.1,.8,.08,1.18-.01,68.89-.03,137.77-.04,206.66Z"/>
    <path class="cls-3" d="M350.95,860.56c-16.35,0-32.69-.17-49.03,.07-7.83,.11-10.9-3.32-11.1-11.02-.54-20.3-.68-20.33,19.78-20.34,30.06,0,60.13,.19,90.19-.18,8.41-.11,11.43,3.11,11.56,11.23,.31,19.88,.18,20.24-19.36,20.24-14.01,0-28.02,0-42.03,0Z"/>
    <path class="cls-3" d="M365.43,349.82c-9.57,.65-19.14,.81-28.71-.08,.61-37.76,2.47-75.45,5.53-113.1,.8-9.85,4.65-19.86,.82-29.9,2.34-8.49,4.68-16.99,7.48-27.15,4.18,10.33,6.72,19.5,8.33,28.96-1.39,14.43,2.36,28.52,2.89,42.77,1.22,32.83,5.17,65.58,3.65,98.51Z"/>
    <path class="cls-3" d="M305.91,530.45c0,69.27,0,138.53,0,207.8q-14.98,1.35-14.98-12.76c0-60.7,0-121.4,0-182.11q0-14.18,14.97-12.93Z"/>
    <path class="cls-3" d="M395.33,531.54c-.19-.38-.21-.77-.08-1.18q15.57-1.2,15.57,14.26c0,60.77,0,121.53,0,182.3q0,12.96-13.84,11.3c.02-66.18,.05-132.35,0-198.53,0-2.75,1.16-5.91-1.65-8.16Z"/>
    <path class="cls-3" d="M388.31,797.37c-25.13-.01-50.26-.02-75.39-.03-1.26-9.14-2.53-18.28-3.79-27.42,28.11,0,56.22,0,84.33,0-1.71,9.15-3.43,18.3-5.14,27.44Z"/>
    <path class="cls-3" d="M323.71,470.37c18.04,0,36.09-.02,54.13-.02,2.88,9.69,5.77,19.39,8.65,29.08-23.6,0-47.21-.01-70.81-.02,2.68-9.68,5.35-19.36,8.03-29.04Z"/>
    <path class="cls-3" d="M365.53,438.19c-9.89,0-19.77-.02-29.66-.03,0-19.12,0-38.24,0-57.36,9.88,0,19.76-.02,29.64-.02,0,19.14,0,38.28,.01,57.41Z"/>
    <path class="cls-3" d="M343.07,206.73c3.82,10.05-.02,20.06-.82,29.9-3.06,37.66-4.91,75.34-5.53,113.1-15.57,1.42-15.7,1.41-14.93-13.98,2.21-43.81,9.93-86.72,21.28-129.03Z"/>
    <path class="cls-3" d="M365.43,349.82c1.51-32.93-2.43-65.67-3.65-98.51-.53-14.25-4.28-28.34-2.89-42.77,9.36,26.47,13.38,54.05,17.1,81.7,2.22,16.47,3.42,33.02,4.07,49.63,.42,10.62,.74,10.62-10.3,10.39-1.44-.03-2.88-.29-4.33-.44Z"/>
    <path class="cls-3" d="M365.53,438.19c0-19.14,0-38.28-.01-57.41q15.4-.77,15.4,14.32c0,11.33-.51,22.7,.18,33.99,.46,7.64-1.68,10.88-9.49,9.47-1.98-.36-4.04-.25-6.07-.36Z"/>
    <path class="cls-3" d="M335.88,380.81c0,19.12,0,38.24,0,57.36q-14.92,.92-14.92-13.49c0-11.57,.6-23.18-.2-34.69-.58-8.25,2.39-10.72,9.95-9.49,1.7,.28,3.45,.22,5.18,.32Z"/>
    <path class="cls-3" d="M323.71,470.37c-2.67,9.68-5.35,19.36-8.03,29.04-4.84,0-9.69,0-15.35,0,4.48-9.06,8.77-17.5,12.83-26.06,2.48-5.22,6.78-2.92,10.55-2.98Z"/>
    <path class="cls-3" d="M395.33,531.54c2.81,2.25,1.65,5.4,1.65,8.16,.05,66.18,.01,132.35,0,198.53-.56,0-1.13-.02-1.69-.03,.01-68.89,.03-137.77,.04-206.66Z"/>
    <path class="cls-3" d="M388.31,797.37c1.71-9.15,3.43-18.3,5.14-27.44q14.17-.86,10.69,12.51c-.36,1.4-1.01,2.78-1.09,4.19-.59,9.58-5.65,12.89-14.74,10.75Z"/>
    <path class="cls-3" d="M386.49,499.43c-2.88-9.69-5.77-19.39-8.65-29.08,6.3-1.58,10.1,.53,12.59,6.85,2.91,7.39,6.96,14.32,10.91,22.23h-14.85Z"/>
    <path class="cls-3" d="M309.12,769.92c1.26,9.14,2.53,18.28,3.79,27.42-7.72,1.99-11.5-.84-12.49-8.94-.75-6.12-3-12.05-4.69-18.48h13.39Z"/>
  </g>
  <g>
    <path class="cls-2" d="M467.14,683.34c.14,0,.29,0,.43,0,0,17.95,.34,35.91-.08,53.85-.64,27.16-.89,54.19,10.16,79.83,.28,.65,.51,1.32,.66,2.01,.26,1.22,.03,2.31-1.01,3.16-12.38,10.13-11.29,24.14-10.49,37.83,.98,16.99,12.88,28.6,29.81,28.78,28.81,.3,57.63,.19,86.45,0,10.02-.06,18.28-4.35,24.17-12.59,8.64-12.08,8.21-37.97-1.1-49.66-2.51-3.16-2.82-5.65-1.94-9.5,2.88-12.6,8.59-24.75,8.7-37.74,.38-48.89,.1-97.79,.07-146.68,0-16.3,2.85-33.26-.78-48.7-3.67-15.62-13.74-29.74-21.03-44.51-1.15-2.33-2.37-4.56-2.36-7.3,.07-20.55-.6-41.13,.27-61.64,1.15-27.02-1.36-53.71-5.21-80.32-5.82-40.27-18.41-78.84-30.23-117.59-2.4-7.88-7.55-12.72-13.41-12.68-5.9,.04-11.12,4.98-13.31,12.78-3.7,13.15-7.15,26.37-11.01,39.47-13.93,47.26-23.4,95.22-23.61,144.71-.1,23.36-.42,46.72-.41,70.09,0,5.35-1.1,10.13-3.55,14.88-6.39,12.34-12.44,24.85-18.74,37.24-1.4,2.76-2.5,5.43-2.5,8.65,.07,31.88,.05,63.76,.05,95.64Z"/>
    <path class="cls-1" d="M467.14,683.34c0-31.88,.03-63.76-.05-95.64,0-3.22,1.09-5.88,2.5-8.65,6.3-12.39,12.35-24.9,18.74-37.24,2.45-4.74,3.56-9.52,3.55-14.88-.01-23.36,.31-46.72,.41-70.09,.21-49.49,9.69-97.45,23.61-144.71,3.86-13.1,7.31-26.32,11.01-39.47,2.19-7.8,7.41-12.74,13.31-12.78,5.86-.04,11,4.8,13.41,12.68,11.82,38.75,24.41,77.32,30.23,117.59,3.85,26.61,6.35,53.3,5.21,80.32-.87,20.51-.2,41.09-.27,61.64,0,2.74,1.21,4.97,2.36,7.3,7.29,14.77,17.36,28.89,21.03,44.51,3.63,15.44,.77,32.41,.78,48.7,.03,48.89,.31,97.79-.07,146.68-.1,12.99-5.82,25.14-8.7,37.74-.88,3.85-.57,6.35,1.94,9.5,9.31,11.69,9.74,37.58,1.1,49.66-5.89,8.24-14.15,12.53-24.17,12.59-28.82,.19-57.64,.29-86.45,0-16.93-.17-28.83-11.79-29.81-28.78-.79-13.69-1.89-27.69,10.49-37.83,1.04-.85,1.27-1.94,1.01-3.16-.14-.69-.38-1.36-.66-2.01-11.05-25.64-10.81-52.67-10.16-79.83,.42-17.94,.08-35.9,.08-53.85-.14,0-.29,0-.43,0Zm85.02-205.31c-7.99,0-15.98,.01-23.97,.02-1.4-.08-2.82-.03-4.19-.25-6.12-1-8.52,1-8.05,7.67,.65,9.31,.16,18.7,.16,28.06q0,11.65,12.07,10.91c7.99,0,15.99,.02,23.98,.02,1.64,.09,3.31,0,4.91,.29,6.32,1.14,8.05-1.48,7.68-7.65-.55-9.13-.14-18.32-.14-27.49q0-12.2-12.45-11.58Zm9.96,72.43c-14.59,0-29.18,.01-43.77,.02-3.05,.05-6.53-1.81-8.53,2.41-3.28,6.92-6.76,13.75-10.37,21.07h12.41c19.09,0,38.17,0,57.26,.01h12.01c-3.19-6.4-6.47-12.01-8.82-17.98-2.01-5.11-5.09-6.81-10.18-5.54Zm-55.57,242.25h-10.83c1.37,5.19,3.18,9.99,3.79,14.94,.81,6.55,3.86,8.84,10.1,7.23,20.32,0,40.64,.02,60.96,.03,7.35,1.74,11.44-.95,11.92-8.69,.07-1.14,.59-2.26,.89-3.39q2.81-10.81-8.65-10.12c-22.73,0-45.46,0-68.19,0Zm71.04-25.62q11.19,1.34,11.19-9.14c0-49.14,0-98.28,0-147.41q0-12.5-12.59-11.53c-24.08-.48-48.17-.6-72.25,.06q-12.11-1.01-12.11,10.45c0,49.09,0,98.17,0,147.26q0,11.41,12.11,10.32c24.09,.62,48.18,.69,72.28-.03,.45,0,.91,.02,1.36,.02Zm-30.8-428.33c-1.3-7.65-3.36-15.06-6.74-23.41-2.27,8.22-4.16,15.09-6.05,21.96-9.18,34.21-15.42,68.91-17.21,104.34-.63,12.45-.52,12.45,12.07,11.31,7.74,.71,15.48,.59,23.22,.06,1.17,.12,2.33,.33,3.5,.36,8.93,.19,8.67,.19,8.33-8.4-.53-13.43-1.5-26.81-3.29-40.13-3.01-22.36-6.26-44.67-13.82-66.07Zm-6.42,527.25c11.33,0,22.66,0,33.99,0,15.8,0,15.91-.29,15.66-16.36-.1-6.57-2.54-9.17-9.34-9.08-24.31,.3-48.62,.14-72.93,.15-16.55,0-16.43,.03-16,16.44,.17,6.23,2.64,9,8.98,8.91,13.21-.19,26.43-.06,39.65-.06Z"/>
    <path class="cls-3" d="M576.24,767.05c-24.09,.72-48.18,.65-72.28,.03,0-56.01,0-112.02,0-168.03,24.08-.66,48.16-.54,72.25-.06-.1,.33-.08,.64,.07,.95-.01,55.7-.02,111.41-.04,167.11Z"/>
    <path class="cls-3" d="M540.38,866c-13.22,0-26.44-.13-39.65,.06-6.33,.09-8.81-2.68-8.98-8.91-.44-16.42-.55-16.44,16-16.44,24.31,0,48.62,.16,72.93-.15,6.8-.08,9.24,2.52,9.34,9.08,.25,16.08,.14,16.36-15.66,16.36-11.33,0-22.66,0-33.99,0Z"/>
    <path class="cls-3" d="M552.09,452.99c-7.74,.52-15.48,.65-23.22-.06,.5-30.54,2-61.01,4.47-91.46,.65-7.96,3.76-16.06,.66-24.18,1.89-6.87,3.79-13.74,6.05-21.96,3.38,8.35,5.43,15.76,6.74,23.42-1.13,11.67,1.91,23.07,2.34,34.59,.99,26.55,4.18,53.03,2.95,79.66Z"/>
    <path class="cls-3" d="M503.96,599.05c0,56.01,0,112.02,0,168.03q-12.11,1.09-12.11-10.32c0-49.09,0-98.17,0-147.26q0-11.47,12.11-10.45Z"/>
    <path class="cls-3" d="M576.27,599.94c-.15-.31-.17-.62-.07-.95q12.59-.97,12.59,11.53c0,49.14,0,98.28,0,147.41q0,10.48-11.19,9.14c.02-53.51,.04-107.03,0-160.54,0-2.23,.94-4.78-1.34-6.6Z"/>
    <path class="cls-3" d="M570.59,814.9c-20.32,0-40.64-.02-60.96-.03-1.02-7.39-2.04-14.78-3.07-22.17,22.73,0,45.46,0,68.19,0-1.39,7.4-2.77,14.8-4.16,22.19Z"/>
    <path class="cls-3" d="M518.36,550.48c14.59,0,29.18-.01,43.77-.02,2.33,7.84,4.66,15.68,7,23.52-19.09,0-38.17,0-57.26-.01,2.16-7.83,4.33-15.65,6.49-23.48Z"/>
    <path class="cls-3" d="M552.17,524.46c-7.99,0-15.99-.02-23.98-.02,0-15.46,0-30.92,0-46.38,7.99,0,15.98-.01,23.97-.02,0,15.48,0,30.95,0,46.43Z"/>
    <path class="cls-3" d="M534.01,337.29c3.09,8.13-.02,16.22-.66,24.18-2.47,30.45-3.97,60.92-4.47,91.46-12.59,1.15-12.7,1.14-12.07-11.31,1.78-35.43,8.03-70.13,17.21-104.34Z"/>
    <path class="cls-3" d="M552.09,452.99c1.22-26.63-1.96-53.11-2.95-79.66-.43-11.52-3.46-22.92-2.34-34.59,7.57,21.4,10.82,43.71,13.82,66.07,1.79,13.32,2.76,26.7,3.29,40.13,.34,8.59,.6,8.59-8.33,8.4-1.17-.02-2.33-.23-3.5-.36Z"/>
    <path class="cls-3" d="M552.17,524.46c0-15.48,0-30.95,0-46.43q12.45-.62,12.45,11.58c0,9.17-.41,18.36,.14,27.49,.38,6.18-1.36,8.8-7.68,7.65-1.6-.29-3.27-.2-4.91-.29Z"/>
    <path class="cls-3" d="M528.2,478.05c0,15.46,0,30.92,0,46.38q-12.07,.74-12.07-10.91c0-9.36,.49-18.75-.16-28.06-.47-6.67,1.93-8.67,8.05-7.67,1.37,.22,2.79,.18,4.19,.25Z"/>
    <path class="cls-3" d="M518.36,550.48c-2.16,7.83-4.33,15.65-6.49,23.48-3.92,0-7.83,0-12.42,0,3.62-7.32,7.09-14.15,10.37-21.07,2-4.22,5.48-2.36,8.53-2.41Z"/>
    <path class="cls-3" d="M576.27,599.94c2.28,1.82,1.34,4.37,1.34,6.6,.04,53.51,0,107.03,0,160.54-.46,0-.91-.02-1.37-.02,.01-55.7,.02-111.41,.04-167.11Z"/>
    <path class="cls-3" d="M570.59,814.9c1.39-7.4,2.77-14.8,4.16-22.19q11.46-.69,8.64,10.12c-.29,1.13-.81,2.25-.89,3.39-.48,7.74-4.57,10.42-11.92,8.69Z"/>
    <path class="cls-3" d="M569.12,573.97c-2.33-7.84-4.66-15.68-7-23.52,5.09-1.27,8.17,.43,10.18,5.54,2.35,5.97,5.63,11.58,8.82,17.98h-12.01Z"/>
    <path class="cls-3" d="M506.56,792.7c1.02,7.39,2.04,14.78,3.07,22.17-6.25,1.61-9.3-.68-10.1-7.23-.61-4.95-2.43-9.75-3.79-14.94h10.83Z"/>
  </g>
  <g>
    <path class="cls-2" d="M637.51,744.68c.1,0,.2,0,.3,0,0,12.6,.24,25.2-.06,37.79-.45,19.06-.63,38.03,7.13,56.02,.2,.45,.36,.93,.46,1.41,.18,.86,.02,1.62-.71,2.21-8.69,7.11-7.92,16.94-7.36,26.54,.69,11.92,9.04,20.07,20.92,20.19,20.22,.21,40.44,.13,60.66,0,7.03-.05,12.82-3.05,16.96-8.83,6.06-8.47,5.76-26.64-.77-34.84-1.76-2.21-1.98-3.97-1.36-6.67,2.02-8.84,6.03-17.36,6.1-26.48,.27-34.31,.07-68.61,.05-102.92,0-11.43,2-23.34-.54-34.17-2.57-10.96-9.64-20.87-14.76-31.23-.81-1.63-1.66-3.2-1.66-5.12,.05-14.42-.42-28.86,.19-43.25,.8-18.96-.96-37.69-3.66-56.36-4.08-28.25-12.92-55.32-21.21-82.51-1.69-5.53-5.3-8.92-9.41-8.9-4.14,.03-7.8,3.49-9.34,8.97-2.59,9.23-5.02,18.5-7.72,27.69-9.77,33.16-16.42,66.81-16.57,101.54-.07,16.39-.29,32.79-.29,49.18,0,3.76-.77,7.11-2.49,10.44-4.48,8.66-8.73,17.44-13.15,26.13-.99,1.94-1.76,3.81-1.75,6.07,.05,22.37,.03,44.74,.03,67.11Z"/>
    <path class="cls-1" d="M637.51,744.68c0-22.37,.02-44.74-.03-67.11,0-2.26,.77-4.13,1.75-6.07,4.42-8.69,8.67-17.47,13.15-26.13,1.72-3.33,2.49-6.68,2.49-10.44,0-16.39,.22-32.79,.29-49.18,.15-34.73,6.8-68.38,16.57-101.54,2.71-9.19,5.13-18.47,7.72-27.69,1.54-5.48,5.2-8.94,9.34-8.97,4.11-.03,7.72,3.37,9.41,8.9,8.3,27.19,17.13,54.25,21.21,82.51,2.7,18.67,4.46,37.4,3.66,56.36-.61,14.39-.14,28.83-.19,43.25,0,1.92,.85,3.49,1.66,5.12,5.12,10.36,12.18,20.27,14.76,31.23,2.55,10.84,.54,22.74,.54,34.17,.02,34.31,.22,68.62-.05,102.92-.07,9.12-4.08,17.64-6.1,26.48-.62,2.7-.4,4.45,1.36,6.67,6.53,8.2,6.83,26.37,.77,34.84-4.13,5.78-9.93,8.79-16.96,8.83-20.22,.13-40.44,.2-60.66,0-11.88-.12-20.23-8.27-20.92-20.19-.56-9.61-1.32-19.43,7.36-26.54,.73-.6,.89-1.36,.71-2.21-.1-.48-.27-.96-.46-1.41-7.76-17.99-7.58-36.96-7.13-56.02,.3-12.59,.06-25.19,.06-37.79-.1,0-.2,0-.3,0Zm59.66-144.06c-5.61,0-11.21,0-16.82,.01-.98-.05-1.98-.02-2.94-.18-4.29-.7-5.98,.7-5.65,5.38,.46,6.53,.12,13.12,.12,19.69q0,8.18,8.47,7.66c5.61,0,11.22,.01,16.83,.02,1.15,.06,2.32,0,3.44,.2,4.44,.8,5.65-1.04,5.39-5.37-.39-6.41-.1-12.86-.1-19.29q0-8.56-8.74-8.12Zm6.99,50.82c-10.24,0-20.48,0-30.71,.01-2.14,.04-4.58-1.27-5.99,1.69-2.3,4.86-4.74,9.65-7.28,14.78h8.71c13.39,0,26.78,0,40.18,.01h8.43c-2.24-4.49-4.54-8.42-6.19-12.62-1.41-3.58-3.57-4.78-7.14-3.89Zm-38.99,169.98h-7.6c.96,3.64,2.23,7.01,2.66,10.48,.57,4.6,2.71,6.2,7.09,5.07,14.26,0,28.52,.01,42.78,.02,5.16,1.22,8.03-.66,8.36-6.1,.05-.8,.41-1.58,.62-2.38q1.97-7.58-6.07-7.1c-15.95,0-31.9,0-47.85,0Zm49.85-17.98q7.85,.94,7.85-6.41c0-34.48,0-68.96,0-103.44q0-8.77-8.83-8.09c-16.9-.33-33.8-.42-50.69,.04q-8.49-.71-8.49,7.33c0,34.44,0,68.88,0,103.33q0,8.01,8.5,7.24c16.9,.44,33.81,.48,50.71-.02,.32,0,.64,.01,.96,.02Zm-21.61-300.55c-.92-5.37-2.36-10.57-4.73-16.43-1.59,5.77-2.92,10.59-4.25,15.41-6.44,24.01-10.82,48.35-12.07,73.21-.44,8.73-.37,8.74,8.47,7.93,5.43,.5,10.86,.41,16.29,.04,.82,.09,1.64,.23,2.45,.25,6.27,.13,6.08,.13,5.85-5.89-.37-9.42-1.05-18.81-2.31-28.16-2.11-15.69-4.39-31.34-9.7-46.36Zm-4.5,369.96c7.95,0,15.9,0,23.85,0,11.09,0,11.16-.2,10.99-11.48-.07-4.61-1.78-6.43-6.56-6.37-17.06,.21-34.11,.1-51.17,.1-11.61,0-11.53,.02-11.22,11.54,.12,4.37,1.85,6.32,6.3,6.25,9.27-.13,18.55-.04,27.82-.04Z"/>
    <path class="cls-3" d="M714.06,803.43c-16.9,.51-33.81,.46-50.71,.02,0-39.3,0-78.6,0-117.9,16.9-.47,33.8-.38,50.69-.04-.07,.23-.06,.45,.05,.67,0,39.09-.02,78.17-.03,117.26Z"/>
    <path class="cls-3" d="M688.9,872.85c-9.27,0-18.55-.09-27.82,.04-4.44,.06-6.18-1.88-6.3-6.25-.31-11.52-.39-11.54,11.22-11.54,17.06,0,34.12,.11,51.17-.1,4.77-.06,6.48,1.77,6.56,6.37,.18,11.28,.1,11.48-10.99,11.48-7.95,0-15.9,0-23.85,0Z"/>
    <path class="cls-3" d="M697.11,583.06c-5.43,.37-10.86,.46-16.29-.05,.35-21.43,1.4-42.81,3.14-64.18,.45-5.59,2.64-11.27,.47-16.97,1.33-4.82,2.66-9.64,4.25-15.41,2.37,5.86,3.81,11.06,4.73,16.43-.79,8.19,1.34,16.18,1.64,24.27,.69,18.63,2.93,37.21,2.07,55.89Z"/>
    <path class="cls-3" d="M663.34,685.55c0,39.3,0,78.6,0,117.9q-8.5,.76-8.5-7.24c0-34.44,0-68.88,0-103.33q0-8.05,8.49-7.33Z"/>
    <path class="cls-3" d="M714.08,686.17c-.11-.22-.12-.44-.05-.67q8.83-.68,8.83,8.09c0,34.48,0,68.96,0,103.44q0,7.35-7.85,6.41c.01-37.55,.03-75.1,0-112.65,0-1.56,.66-3.35-.94-4.63Z"/>
    <path class="cls-3" d="M710.1,837c-14.26,0-28.52-.01-42.78-.02-.72-5.19-1.43-10.37-2.15-15.56,15.95,0,31.9,0,47.85,0-.97,5.19-1.94,10.38-2.92,15.57Z"/>
    <path class="cls-3" d="M673.45,651.46c10.24,0,20.48,0,30.71-.01,1.64,5.5,3.27,11,4.91,16.5-13.39,0-26.78,0-40.18-.01,1.52-5.49,3.04-10.98,4.55-16.48Z"/>
    <path class="cls-3" d="M697.17,633.2c-5.61,0-11.22-.01-16.83-.02,0-10.85,0-21.7,0-32.55,5.61,0,11.21,0,16.82-.01,0,10.86,0,21.72,0,32.58Z"/>
    <path class="cls-3" d="M684.43,501.87c2.17,5.7-.01,11.38-.47,16.97-1.74,21.37-2.79,42.75-3.14,64.18-8.84,.81-8.91,.8-8.47-7.93,1.25-24.86,5.63-49.21,12.07-73.21Z"/>
    <path class="cls-3" d="M697.11,583.06c.86-18.69-1.38-37.26-2.07-55.89-.3-8.09-2.43-16.08-1.64-24.27,5.31,15.02,7.59,30.67,9.7,46.36,1.26,9.35,1.94,18.73,2.31,28.16,.24,6.03,.42,6.03-5.85,5.89-.82-.02-1.64-.16-2.45-.25Z"/>
    <path class="cls-3" d="M697.17,633.2c0-10.86,0-21.72,0-32.58q8.74-.44,8.74,8.12c0,6.43-.29,12.88,.1,19.29,.26,4.34-.95,6.17-5.39,5.37-1.12-.2-2.29-.14-3.44-.2Z"/>
    <path class="cls-3" d="M680.35,600.64c0,10.85,0,21.7,0,32.55q-8.47,.52-8.47-7.66c0-6.56,.34-13.15-.12-19.69-.33-4.68,1.35-6.08,5.65-5.38,.96,.16,1.96,.12,2.94,.18Z"/>
    <path class="cls-3" d="M673.45,651.46c-1.52,5.49-3.04,10.98-4.55,16.48-2.75,0-5.5,0-8.71,0,2.54-5.14,4.98-9.93,7.28-14.78,1.4-2.96,3.85-1.66,5.99-1.69Z"/>
    <path class="cls-3" d="M714.08,686.17c1.6,1.28,.94,3.07,.94,4.63,.03,37.55,0,75.1,0,112.65-.32,0-.64-.01-.96-.02,0-39.09,.02-78.17,.02-117.26Z"/>
    <path class="cls-3" d="M710.1,837c.97-5.19,1.95-10.38,2.92-15.57q8.04-.49,6.07,7.1c-.21,.79-.57,1.58-.62,2.38-.34,5.43-3.21,7.31-8.36,6.1Z"/>
    <path class="cls-3" d="M709.07,667.95c-1.64-5.5-3.27-11-4.91-16.5,3.57-.89,5.73,.3,7.14,3.89,1.65,4.19,3.95,8.13,6.19,12.62h-8.43Z"/>
    <path class="cls-3" d="M665.17,821.42c.72,5.19,1.43,10.37,2.15,15.56-4.38,1.13-6.52-.48-7.09-5.07-.43-3.47-1.7-6.84-2.66-10.48h7.6Z"/>
  </g>
</svg>