<?xml version="1.0" encoding="UTF-8"?>
<svg id="Calque_1" data-name="Calque 1" xmlns="http://www.w3.org/2000/svg" viewBox="0 0 1000 1000">
  <defs>
    <style>
      .cls-1 {
        fill: #040404;
      }

      .cls-2 {
        fill: #fdfdfd;
      }

      .cls-3 {
        fill: #fac20a;
      }
    </style>
  </defs>
  <path class="cls-2" d="M392.35,637.63c.18,0,.36,0,.53,0,0,22.2,.43,44.41-.1,66.6-.8,33.59-1.1,67.02,12.57,98.72,.34,.8,.64,1.64,.81,2.49,.32,1.51,.04,2.85-1.25,3.9-15.31,12.53-13.96,29.85-12.98,46.78,1.22,21.01,15.93,35.37,36.87,35.59,35.63,.37,71.27,.24,106.91,0,12.39-.08,22.6-5.38,29.89-15.57,10.68-14.93,10.15-46.96-1.36-61.41-3.11-3.9-3.49-6.99-2.4-11.75,3.56-15.58,10.63-30.6,10.75-46.67,.47-60.46,.12-120.93,.09-181.39-.01-20.15,3.53-41.13-.96-60.23-4.54-19.32-16.99-36.78-26.01-55.04-1.42-2.88-2.93-5.64-2.92-9.02,.09-25.41-.74-50.86,.34-76.23,1.42-33.41-1.68-66.42-6.44-99.33-7.2-49.79-22.77-97.5-37.39-145.41-2.97-9.74-9.33-15.73-16.58-15.68-7.3,.05-13.75,6.15-16.46,15.8-4.57,16.26-8.84,32.61-13.61,48.81-17.22,58.44-28.94,117.75-29.2,178.95-.12,28.89-.52,57.78-.51,86.67,0,6.62-1.36,12.53-4.39,18.4-7.9,15.26-15.39,30.73-23.17,46.05-1.74,3.42-3.1,6.72-3.09,10.69,.09,39.42,.06,78.85,.06,118.27Z"/>
  <path class="cls-1" d="M392.35,637.63c0-39.42,.04-78.85-.06-118.27,0-3.98,1.35-7.28,3.09-10.69,7.78-15.32,15.28-30.79,23.17-46.05,3.04-5.87,4.4-11.78,4.39-18.4-.01-28.89,.38-57.78,.51-86.67,.26-61.2,11.98-120.51,29.2-178.95,4.77-16.2,9.04-32.55,13.61-48.81,2.71-9.65,9.16-15.75,16.46-15.8,7.25-.05,13.61,5.94,16.58,15.68,14.62,47.92,30.19,95.62,37.39,145.41,4.76,32.91,7.86,65.92,6.44,99.33-1.08,25.37-.25,50.81-.34,76.23-.01,3.39,1.5,6.15,2.92,9.02,9.02,18.26,21.47,35.72,26.01,55.04,4.49,19.1,.95,40.07,.96,60.23,.03,60.46,.38,120.93-.09,181.39-.13,16.07-7.2,31.09-10.75,46.67-1.09,4.76-.71,7.85,2.4,11.75,11.51,14.45,12.04,46.47,1.36,61.41-7.28,10.19-17.49,15.49-29.89,15.57-35.63,.23-71.28,.36-106.91,0-20.94-.22-35.65-14.58-36.87-35.59-.98-16.93-2.33-34.25,12.98-46.78,1.29-1.05,1.57-2.39,1.25-3.9-.18-.85-.47-1.69-.81-2.49-13.67-31.71-13.36-65.13-12.57-98.72,.53-22.19,.1-44.4,.1-66.6-.18,0-.36,0-.53,0Zm105.14-253.89c-9.88,0-19.76,.02-29.64,.02-1.73-.1-3.48-.04-5.18-.32-7.57-1.23-10.53,1.24-9.95,9.49,.81,11.51,.2,23.12,.2,34.69q0,14.41,14.92,13.49c9.89,0,19.77,.02,29.66,.03,2.03,.11,4.09,0,6.07,.36,7.82,1.41,9.96-1.82,9.49-9.47-.69-11.29-.18-22.66-.18-33.99q0-15.09-15.4-14.32Zm12.32,89.57c-18.04,0-36.09,.02-54.13,.02-3.77,.07-8.07-2.24-10.55,2.98-4.06,8.56-8.35,17-12.83,26.06h15.35c23.6,0,47.21,.01,70.81,.02h14.85c-3.95-7.91-8-14.85-10.91-22.23-2.49-6.32-6.29-8.42-12.59-6.85Zm-68.72,299.57h-13.39c1.69,6.42,3.93,12.36,4.69,18.48,1,8.1,4.77,10.93,12.49,8.94,25.13,.01,50.26,.02,75.39,.03,9.09,2.15,14.15-1.17,14.74-10.75,.09-1.41,.73-2.79,1.09-4.19q3.48-13.36-10.69-12.51c-28.11,0-56.22,0-84.33,0Zm87.85-31.69q13.84,1.66,13.84-11.3c0-60.77,0-121.53,0-182.3q0-15.46-15.57-14.26c-29.78-.59-59.56-.74-89.34,.08q-14.97-1.25-14.97,12.93c0,60.7,0,121.4,0,182.11q0,14.11,14.98,12.76c29.79,.77,59.59,.85,89.38-.04,.56,.01,1.12,.02,1.69,.03Zm-38.09-529.7c-1.61-9.46-4.15-18.63-8.33-28.96-2.8,10.16-5.14,18.66-7.48,27.15-11.35,42.31-19.07,85.22-21.28,129.03-.78,15.39-.64,15.4,14.93,13.98,9.57,.88,19.14,.72,28.71,.08,1.44,.15,2.88,.41,4.33,.44,11.05,.24,10.72,.23,10.3-10.39-.66-16.61-1.86-33.15-4.07-49.63-3.72-27.65-7.74-55.24-17.1-81.71Zm-7.94,652.02c14.01,0,28.02,0,42.03,0,19.54,0,19.67-.35,19.36-20.24-.13-8.12-3.15-11.34-11.56-11.23-30.06,.38-60.12,.18-90.19,.18-20.46,0-20.32,.03-19.78,20.34,.2,7.7,3.27,11.13,11.1,11.02,16.34-.24,32.69-.07,49.03-.07Z"/>
  <path class="cls-3" d="M527.26,741.16c-29.79,.89-59.59,.81-89.38,.04,0-69.27,0-138.53,0-207.8,29.78-.82,59.56-.67,89.34-.08-.13,.4-.1,.8,.08,1.18-.01,68.89-.03,137.77-.04,206.66Z"/>
  <path class="cls-3" d="M482.92,863.52c-16.35,0-32.69-.17-49.03,.07-7.83,.11-10.9-3.32-11.1-11.02-.54-20.3-.68-20.33,19.78-20.34,30.06,0,60.13,.19,90.19-.18,8.41-.11,11.43,3.11,11.56,11.23,.31,19.88,.18,20.24-19.36,20.24-14.01,0-28.02,0-42.03,0Z"/>
  <path class="cls-3" d="M497.4,352.77c-9.57,.65-19.14,.81-28.71-.08,.61-37.76,2.47-75.45,5.53-113.1,.8-9.85,4.65-19.86,.82-29.9,2.34-8.49,4.68-16.99,7.48-27.15,4.18,10.33,6.72,19.5,8.33,28.96-1.39,14.43,2.36,28.52,2.89,42.77,1.22,32.83,5.17,65.58,3.65,98.51Z"/>
  <path class="cls-3" d="M437.88,533.4c0,69.27,0,138.53,0,207.8q-14.98,1.35-14.98-12.76c0-60.7,0-121.4,0-182.11q0-14.18,14.97-12.93Z"/>
  <path class="cls-3" d="M527.31,534.5c-.19-.38-.21-.77-.08-1.18q15.57-1.2,15.57,14.26c0,60.77,0,121.53,0,182.3q0,12.96-13.84,11.3c.02-66.18,.05-132.35,0-198.53,0-2.75,1.16-5.91-1.65-8.16Z"/>
  <path class="cls-3" d="M520.28,800.32c-25.13-.01-50.26-.02-75.39-.03-1.26-9.14-2.53-18.28-3.79-27.42,28.11,0,56.22,0,84.33,0-1.71,9.15-3.43,18.3-5.14,27.44Z"/>
  <path class="cls-3" d="M455.68,473.33c18.04,0,36.09-.02,54.13-.02,2.88,9.69,5.77,19.39,8.65,29.08-23.6,0-47.21-.01-70.81-.02,2.68-9.68,5.35-19.36,8.03-29.04Z"/>
  <path class="cls-3" d="M497.5,441.15c-9.89,0-19.77-.02-29.66-.03,0-19.12,0-38.24,0-57.36,9.88,0,19.76-.02,29.64-.02,0,19.14,0,38.28,.01,57.41Z"/>
  <path class="cls-3" d="M475.04,209.69c3.82,10.05-.02,20.06-.82,29.9-3.06,37.66-4.91,75.34-5.53,113.1-15.57,1.42-15.7,1.41-14.93-13.98,2.21-43.81,9.93-86.72,21.28-129.03Z"/>
  <path class="cls-3" d="M497.4,352.77c1.51-32.93-2.43-65.67-3.65-98.51-.53-14.25-4.28-28.34-2.89-42.77,9.36,26.47,13.38,54.05,17.1,81.7,2.22,16.47,3.42,33.02,4.07,49.63,.42,10.62,.74,10.62-10.3,10.39-1.44-.03-2.88-.29-4.33-.44Z"/>
  <path class="cls-3" d="M497.5,441.15c0-19.14,0-38.28-.01-57.41q15.4-.77,15.4,14.32c0,11.33-.51,22.7,.18,33.99,.46,7.64-1.68,10.88-9.49,9.47-1.98-.36-4.04-.25-6.07-.36Z"/>
  <path class="cls-3" d="M467.85,383.76c0,19.12,0,38.24,0,57.36q-14.92,.92-14.92-13.49c0-11.57,.6-23.18-.2-34.69-.58-8.25,2.39-10.72,9.95-9.49,1.7,.28,3.45,.22,5.18,.32Z"/>
  <path class="cls-3" d="M455.68,473.33c-2.67,9.68-5.35,19.36-8.03,29.04-4.84,0-9.69,0-15.35,0,4.48-9.06,8.77-17.5,12.83-26.06,2.48-5.22,6.78-2.92,10.55-2.98Z"/>
  <path class="cls-3" d="M527.31,534.5c2.81,2.25,1.65,5.4,1.65,8.16,.05,66.18,.01,132.35,0,198.53-.56,0-1.13-.02-1.69-.03,.01-68.89,.03-137.77,.04-206.66Z"/>
  <path class="cls-3" d="M520.28,800.32c1.71-9.15,3.43-18.3,5.14-27.44q14.17-.86,10.69,12.51c-.36,1.4-1.01,2.78-1.09,4.19-.59,9.58-5.65,12.89-14.74,10.75Z"/>
  <path class="cls-3" d="M518.47,502.38c-2.88-9.69-5.77-19.39-8.65-29.08,6.3-1.58,10.1,.53,12.59,6.85,2.91,7.39,6.96,14.32,10.91,22.23h-14.85Z"/>
  <path class="cls-3" d="M441.1,772.87c1.26,9.14,2.53,18.28,3.79,27.42-7.72,1.99-11.5-.84-12.49-8.94-.75-6.12-3-12.05-4.69-18.48h13.39Z"/>
</svg>