<?xml version="1.0" encoding="UTF-8"?>
<svg id="Calque_1" data-name="Calque 1" xmlns="http://www.w3.org/2000/svg" viewBox="0 0 1000 1000">
  <defs>
    <style>
      .cls-1 {
        fill: #0c0606;
      }

      .cls-2 {
        fill: #e40101;
      }
    </style>
  </defs>
  <path class="cls-1" d="M515.94,884.4c-19.4-27-38.48-53.56-59.71-78.49-51.21-60.14-111.17-111.09-170.17-163.07-47.47-41.81-94.73-83.98-129.43-137.66-45.24-69.98-63.99-146.46-41.76-227.65,24.3-88.74,85.44-143.62,175.7-159.69,88.72-15.8,161.76,16.07,217.55,86.92,2.02,2.57,3.94,5.21,5.95,7.8,.27,.35,.74,.56,2.13,1.59,2.88-3.73,5.84-7.53,8.77-11.36,62.72-82.04,169.45-110.9,264.1-71.41,92.46,38.58,146.41,135.35,134.75,236.13-9.75,84.31-53.52,149.19-110.91,207.27-50.05,50.66-105.56,95.37-157.36,144.14-51.33,48.33-97.51,100.93-135.62,160.39-.99,1.55-2.27,2.92-3.97,5.08Zm-1.04-601.23c-2.78-4.79-4.69-7.91-6.43-11.13-.87-1.61-1.4-3.4-2.18-5.07-23.68-51.29-58.56-90.55-113.77-109.53-44.07-15.15-87.76-15.34-130.86,1.39-64.01,24.85-105.63,71.46-119.02,138.5-11.1,55.56-1.52,110.22,23.97,161.43,20.92,42.02,50.92,77.08,84.49,109.29,52.88,50.72,111.07,95.57,163.19,147.13,21.18,20.95,42.63,41.68,62.74,63.64,11.81,12.89,21.27,27.94,31.65,42.12,4.28,5.84,8.89,6.81,12.28,.01,6.49-13.03,16.96-23.04,25.91-33.97,26.89-32.84,55.23-64.67,86.72-93.13,56.57-51.13,116.21-99.09,168.56-154.58,38.72-41.04,71.29-86.43,83.4-144.22,7.61-36.32,10.73-71.92,1.23-107.58-11.42-42.89-35.97-77.78-71.54-104.32-26.36-19.67-56.29-32.23-89.02-35.31-28.75-2.71-57.05-.66-85.3,9.25-43.98,15.42-76.19,43.42-101.14,81.65-8.99,13.77-12.97,30.27-24.88,44.43Z"/>
  <path class="cls-2" d="M514.9,283.17c11.91-14.17,15.89-30.66,24.88-44.43,24.94-38.23,57.16-66.23,101.14-81.65,28.25-9.9,56.55-11.96,85.3-9.25,32.73,3.08,62.66,15.64,89.02,35.31,35.57,26.54,60.12,61.43,71.54,104.32,9.49,35.66,6.38,71.26-1.23,107.58-12.11,57.79-44.68,103.18-83.4,144.22-52.36,55.5-111.99,103.45-168.56,154.58-31.49,28.46-59.83,60.29-86.72,93.13-8.94,10.92-19.42,20.94-25.91,33.97-3.38,6.8-8,5.83-12.28-.01-10.38-14.18-19.85-29.22-31.65-42.12-20.1-21.95-41.56-42.68-62.74-63.64-52.12-51.56-110.31-96.41-163.19-147.13-33.57-32.21-63.57-67.27-84.49-109.29-25.49-51.21-35.07-105.87-23.97-161.43,13.39-67.04,55.02-113.65,119.02-138.5,43.1-16.73,86.79-16.54,130.86-1.39,55.21,18.98,90.09,58.23,113.77,109.53,.77,1.67,1.3,3.46,2.18,5.07,1.74,3.21,3.65,6.34,6.43,11.13Zm-83.62-88.29c-3.34-2.47-5.02-3.93-6.9-5.06-43.45-26.27-89.42-31.86-138.83-20.01-67.97,16.3-127.66,84.75-132.36,153.67-5.24,76.74,20.71,142.27,71.58,198.39,49.58,54.7,108.58,99.4,161.94,150.12,1.91,1.82,3.93,4.68,6.94,2.05,2.27-1.98,.29-4.5-.55-6.38-1.3-2.91-3.2-5.6-5.14-8.16-20.84-27.55-41.46-55.26-59.94-84.48-32.59-51.53-61.11-104.73-72.64-165.63-14.14-74.66,22.64-153.73,88.71-190.6,26.73-14.91,54.99-23.02,87.21-23.89Z"/>
  <path class="cls-2" d="M431.28,194.89c-32.22,.87-60.48,8.97-87.21,23.89-66.07,36.87-102.85,115.94-88.71,190.6,11.53,60.9,40.06,114.1,72.64,165.63,18.48,29.22,39.1,56.93,59.94,84.48,1.94,2.56,3.85,5.25,5.14,8.16,.84,1.89,2.82,4.4,.55,6.38-3.01,2.63-5.02-.23-6.94-2.05-53.35-50.72-112.36-95.42-161.94-150.12-50.87-56.12-76.82-121.65-71.58-198.39,4.7-68.91,64.39-137.36,132.36-153.67,49.41-11.85,95.38-6.26,138.83,20.01,1.88,1.14,3.56,2.6,6.9,5.06Z"/>
</svg>