<?xml version="1.0" encoding="UTF-8"?>
<svg id="Calque_1" data-name="Calque 1" xmlns="http://www.w3.org/2000/svg" viewBox="0 0 1000 1000">
  <defs>
    <style>
      .cls-1 {
        fill: #0c0606;
      }
    </style>
  </defs>
  <path class="cls-1" d="M515.94,884.4c-19.4-27-38.48-53.56-59.71-78.49-51.21-60.14-111.17-111.09-170.17-163.07-47.47-41.81-94.73-83.98-129.43-137.66-45.24-69.98-63.99-146.46-41.76-227.65,24.3-88.74,85.44-143.62,175.7-159.69,88.72-15.8,161.76,16.07,217.55,86.92,2.02,2.57,3.94,5.21,5.95,7.8,.27,.35,.74,.56,2.13,1.59,2.88-3.73,5.84-7.53,8.77-11.36,62.72-82.04,169.45-110.9,264.1-71.41,92.46,38.58,146.41,135.35,134.75,236.13-9.75,84.31-53.52,149.19-110.91,207.27-50.05,50.66-105.56,95.37-157.36,144.14-51.33,48.33-97.51,100.93-135.62,160.39-.99,1.55-2.27,2.92-3.97,5.08Zm-1.04-601.23c-2.78-4.79-4.69-7.91-6.43-11.13-.87-1.61-1.4-3.4-2.18-5.07-23.68-51.29-58.56-90.55-113.77-109.53-44.07-15.15-87.76-15.34-130.86,1.39-64.01,24.85-105.63,71.46-119.02,138.5-11.1,55.56-1.52,110.22,23.97,161.43,20.92,42.02,50.92,77.08,84.49,109.29,52.88,50.72,111.07,95.57,163.19,147.13,21.18,20.95,42.63,41.68,62.74,63.64,11.81,12.89,21.27,27.94,31.65,42.12,4.28,5.84,8.89,6.81,12.28,.01,6.49-13.03,16.96-23.04,25.91-33.97,26.89-32.84,55.23-64.67,86.72-93.13,56.57-51.13,116.21-99.09,168.56-154.58,38.72-41.04,71.29-86.43,83.4-144.22,7.61-36.32,10.73-71.92,1.23-107.58-11.42-42.89-35.97-77.78-71.54-104.32-26.36-19.67-56.29-32.23-89.02-35.31-28.75-2.71-57.05-.66-85.3,9.25-43.98,15.42-76.19,43.42-101.14,81.65-8.99,13.77-12.97,30.27-24.88,44.43Z"/>
</svg>